<svg xmlns="http://www.w3.org/2000/svg" width="713" height="482" fill="none"><path fill="#fff" d="M95.626 3.511h31.191V202H95.626zm92.831 0h42.25L263.032 202h-31.191l-5.671-39.414v.567h-35.445L185.054 202h-28.922zm34.027 132.704-13.895-98.11h-.567l-13.61 98.11z"/><path fill="#FF5900" d="M292.342 3.511h45.936q23.252 0 34.878 12.477t11.626 36.578v19.566q0 24.102-11.626 36.578t-34.878 12.477h-14.744V202h-31.192zm45.936 89.32q7.656 0 11.343-4.253 3.969-4.254 3.969-14.462V50.581q0-10.208-3.969-14.461-3.687-4.253-11.343-4.253h-14.744V92.83zM415.9 3.511h46.219q24.103 0 35.161 11.342 11.059 11.06 11.059 34.31v12.193q0 30.909-20.416 39.131v.567q11.341 3.403 15.879 13.894 4.82 10.492 4.82 28.072v34.878q0 8.506.567 13.894.568 5.104 2.836 10.208h-31.758q-1.702-4.82-2.269-9.074-.567-4.252-.567-15.312v-36.295q0-13.61-4.537-18.998-4.253-5.388-15.028-5.388h-10.775V202H415.9zm42.533 85.067q9.358 0 13.894-4.82 4.821-4.821 4.821-16.163V52.283q0-10.776-3.97-15.596-3.686-4.82-11.91-4.82h-14.177v56.71zm131.093 116.258q-22.968 0-35.161-13.044-12.192-13.044-12.192-36.862V50.581q0-23.818 12.192-36.862Q566.558.676 589.526.676t35.161 13.043 12.193 36.862V154.93q0 23.818-12.193 36.862t-35.161 13.044m0-28.356q16.163 0 16.163-19.565V48.596q0-19.565-16.163-19.565-16.162 0-16.162 19.565v108.319q0 19.565 16.162 19.565m80.964-4.537h30.057V202H670.49z"/><mask id="a" width="594" height="205" x="92" y="249" fill="#000" maskUnits="userSpaceOnUse"><path fill="#fff" d="M92 249h594v205H92z"/><path d="M95.626 252.511h47.07q24.102 0 35.161 11.342 11.059 11.06 11.059 34.311v7.939q0 15.312-5.104 24.953-4.821 9.641-15.029 13.894v.567q23.252 7.94 23.252 41.399v17.014q0 22.968-12.193 35.161Q167.932 451 144.681 451H95.626zm43.384 80.813q9.357 0 13.894-4.82 4.82-4.82 4.82-16.163v-11.058q0-10.776-3.969-15.596-3.687-4.82-11.91-4.82h-15.028v52.457zm5.671 89.32q8.223 0 12.193-4.253 3.97-4.536 3.97-15.312v-17.297q0-13.611-4.821-18.714-4.536-5.388-15.312-5.388h-13.894v60.964zm79.763-170.133h31.191v170.133h51.324V451h-82.515zm111.65 0h85.067v28.356h-53.876v52.457h42.817v28.356h-42.817v60.964h53.876V451h-85.067zm117.188 0h39.131l30.34 118.81h.568v-118.81h27.788V451h-32.042l-37.429-144.897h-.567V451h-27.789zm135.188 0h47.637q23.252 0 34.877 12.477t11.626 36.578v100.379q0 24.102-11.626 36.579T636.107 451H588.47zm47.07 170.133q7.656 0 11.626-4.536 4.253-4.538 4.253-14.745V300.148q0-10.208-4.253-14.744-3.97-4.537-11.626-4.537h-15.879v141.777z"/></mask><path fill="#E1E1E1" d="M95.626 252.511v-3h-3v3zm82.231 11.342-2.148 2.095.013.013.014.014zm5.955 67.203-2.652-1.404-.016.031-.016.031zm-15.029 13.894-1.154-2.769-1.846.769v2zm0 .567h-3v2.146l2.031.693zm11.059 93.574 2.121 2.121zM95.626 451h-3v3h3zm57.278-122.496-2.121-2.121-.032.032-.032.033zm.851-42.817-2.383 1.822.032.043.035.042zm-26.938-4.82v-3h-3v3zm0 52.457h-3v3h3zm30.057 85.067 2.193 2.047.033-.035.032-.036zm-.851-51.323L153.728 369l.055.065.059.062zm-29.206-5.388v-3h-3v3zm0 60.964h-3v3h3zM95.626 252.511v3h47.07v-6h-47.07zm47.07 0v3c15.675 0 26.441 3.696 33.013 10.437l2.148-2.095 2.148-2.094c-8.173-8.383-20.848-12.248-37.309-12.248zm35.161 11.342-2.121 2.122c6.586 6.586 10.18 17.099 10.18 32.189h6c0-15.913-3.78-28.274-11.938-36.432zm11.059 34.311h-3v7.939h6v-7.939zm0 7.939h-3c0 9.905-1.656 17.694-4.756 23.549l2.652 1.404 2.651 1.404c3.705-6.999 5.453-15.846 5.453-26.357zm-5.104 24.953-2.684-1.342c-2.882 5.766-7.339 9.9-13.499 12.467l1.154 2.769 1.154 2.769c7.451-3.104 13.013-8.232 16.558-15.321zm-15.029 13.894h-3v.567h6v-.567zm0 .567-.969 2.839c7.078 2.417 12.292 6.718 15.792 12.95 3.541 6.305 5.429 14.773 5.429 25.61h6c0-11.468-1.988-21.053-6.198-28.548-4.25-7.568-10.662-12.814-19.084-15.69zm23.252 41.399h-3v17.014h6v-17.014zm0 17.014h-3c0 14.789-3.916 25.641-11.315 33.039l2.122 2.122 2.121 2.121c8.859-8.859 13.072-21.448 13.072-37.282zm-12.193 35.161-2.122-2.122C170.53 444.16 159.695 448 144.681 448v6c15.988 0 28.594-4.1 37.282-12.788zM144.681 451v-3H95.626v6h49.055zm-49.055 0h3V252.511h-6V451zm43.384-117.676v3c6.716 0 12.285-1.734 16.079-5.764l-2.185-2.056-2.185-2.056c-2.256 2.397-5.949 3.876-11.709 3.876zm13.894-4.82 2.121 2.121c4.052-4.051 5.699-10.426 5.699-18.284h-6c0 7.266-1.566 11.666-3.941 14.042zm4.82-16.163h3v-11.058h-6v11.058zm0-11.058h3c0-7.422-1.342-13.482-4.654-17.503l-2.315 1.907-2.316 1.907c1.981 2.406 3.285 6.743 3.285 13.689zm-3.969-15.596 2.383-1.822c-3.212-4.2-8.233-5.998-14.293-5.998v6c4.904 0 7.823 1.415 9.527 3.642zm-11.91-4.82v-3h-15.028v6h15.028zm-15.028 0h-3v52.457h6v-52.457zm0 52.457v3h12.193v-6h-12.193zm17.864 89.32v3c5.962 0 10.97-1.546 14.386-5.206l-2.193-2.047-2.193-2.047c-1.878 2.011-4.998 3.3-10 3.3zm12.193-4.253 2.258 1.976c3.38-3.863 4.712-9.892 4.712-17.288h-6c0 6.971-1.315 11.15-3.228 13.337zm3.97-15.312h3v-17.297h-6v17.297zm0-17.297h3c0-9.211-1.587-16.483-5.64-20.774l-2.181 2.06-2.181 2.059c2.375 2.515 4.002 7.719 4.002 16.655zm-4.821-18.714 2.295-1.933c-3.842-4.562-10.011-6.455-17.607-6.455v6c6.771 0 10.81 1.698 13.017 4.32zm-15.312-5.388v-3h-13.894v6h13.894zm-13.894 0h-3v60.964h6V361.68zm0 60.964v3h17.864v-6h-17.864zm97.627-170.133v-3h-3v3zm31.191 0h3v-3h-3zm0 170.133h-3v3h3zm51.324 0h3v-3h-3zm0 28.356v3h3v-3zm-82.515 0h-3v3h3zm0-198.489v3h31.191v-6h-31.191zm31.191 0h-3v170.133h6V252.511zm0 170.133v3h51.324v-6h-51.324zm51.324 0h-3V451h6v-28.356zm0 28.356v-3h-82.515v6h82.515zm-82.515 0h3V252.511h-6V451zm111.65-198.489v-3h-3v3zm85.067 0h3v-3h-3zm0 28.356v3h3v-3zm-53.876 0v-3h-3v3zm0 52.457h-3v3h3zm42.817 0h3v-3h-3zm0 28.356v3h3v-3zm-42.817 0v-3h-3v3zm0 60.964h-3v3h3zm53.876 0h3v-3h-3zm0 28.356v3h3v-3zm-85.067 0h-3v3h3zm0-198.489v3h85.067v-6h-85.067zm85.067 0h-3v28.356h6v-28.356zm0 28.356v-3h-53.876v6h53.876zm-53.876 0h-3v52.457h6v-52.457zm0 52.457v3h42.817v-6h-42.817zm42.817 0h-3v28.356h6v-28.356zm0 28.356v-3h-42.817v6h42.817zm-42.817 0h-3v60.964h6V361.68zm0 60.964v3h53.876v-6h-53.876zm53.876 0h-3V451h6v-28.356zm0 28.356v-3h-85.067v6h85.067zm-85.067 0h3V252.511h-6V451zm117.188-198.489v-3h-3v3zm39.131 0 2.907-.742-.577-2.258h-2.33zm30.34 118.81-2.906.742.576 2.258h2.33zm.568 0v3h3v-3zm0-118.81v-3h-3v3zm27.788 0h3v-3h-3zm0 198.489v3h3v-3zm-32.042 0-2.904.75.581 2.25h2.323zm-37.429-144.897 2.905-.75-.582-2.25h-2.323zm-.567 0v-3h-3v3zm0 144.897v3h3v-3zm-27.789 0h-3v3h3zm0-198.489v3h39.131v-6h-39.131zm39.131 0-2.907.742 30.341 118.81 2.906-.742 2.907-.742-30.34-118.81zm30.34 118.81v3h.568v-6h-.568zm.568 0h3v-118.81h-6v118.81zm0-118.81v3h27.788v-6h-27.788zm27.788 0h-3V451h6V252.511zm0 198.489v-3h-32.042v6h32.042zm-32.042 0 2.905-.75-37.429-144.897-2.905.75-2.905.75 37.43 144.897zm-37.429-144.897v-3h-.567v6h.567zm-.567 0h-3V451h6V306.103zm0 144.897v-3h-27.789v6h27.789zm-27.789 0h3V252.511h-6V451zM588.47 252.511v-3h-3v3zm82.514 12.477-2.194 2.045zM588.47 451h-3v3h3zm58.696-32.892-2.189-2.052-.035.037-.034.039zm0-132.704-2.258 1.975.034.039.035.037zm-27.505-4.537v-3h-3v3zm0 141.777h-3v3h3zM588.47 252.511v3h47.637v-6H588.47zm47.637 0v3c14.982 0 25.683 4.01 32.683 11.522l2.194-2.045 2.195-2.046c-8.501-9.123-21.052-13.431-37.072-13.431zm34.877 12.477-2.194 2.045c7.052 7.569 10.82 18.91 10.82 34.533h6c0-16.513-3.983-29.557-12.431-38.624zm11.626 36.578h-3v100.379h6V301.566zm0 100.379h-3c0 15.623-3.768 26.965-10.82 34.533l2.194 2.046 2.195 2.045c8.448-9.067 12.431-22.111 12.431-38.624zm-11.626 36.579-2.194-2.046c-7 7.512-17.701 11.522-32.683 11.522v6c16.02 0 28.571-4.308 37.072-13.431zM636.107 451v-3H588.47v6h47.637zm-47.637 0h3V252.511h-6V451zm47.07-28.356v3c5.718 0 10.521-1.718 13.883-5.561l-2.257-1.975-2.258-1.976c-1.93 2.206-4.878 3.512-9.368 3.512zm11.626-4.536 2.188 2.051c3.604-3.844 5.065-9.69 5.065-16.796h-6c0 6.504-1.375 10.488-3.442 12.693zm4.253-14.745h3V300.148h-6v103.215zm0-103.215h3c0-7.106-1.461-12.952-5.065-16.796l-2.188 2.052-2.189 2.051c2.067 2.205 3.442 6.189 3.442 12.693zm-4.253-14.744 2.257-1.976c-3.362-3.843-8.165-5.561-13.883-5.561v6c4.49 0 7.438 1.306 9.368 3.512zm-11.626-4.537v-3h-15.879v6h15.879zm-15.879 0h-3v141.777h6V280.867zm0 141.777v3h15.879v-6h-15.879z" mask="url(#a)"/><path fill="#fff" d="M14.651 448.051V427.12h7.193v13.019H35.87v-10.214h7.192v10.214H65v7.912zm51.068-66.37q0 5.826-3.308 8.919-3.31 3.092-9.35 3.092H26.59q-6.042 0-9.35-3.092-3.309-3.093-3.309-8.919t3.309-8.919 9.35-3.093h26.47q6.04 0 9.35 3.093 3.308 3.093 3.308 8.919m-7.192 0q0-4.1-4.963-4.1H26.088q-4.963 0-4.963 4.1t4.963 4.1h27.476q4.962 0 4.963-4.1M14.65 334.109v-11.724q0-6.114 2.877-8.919 2.806-2.805 8.704-2.805h3.092q7.84 0 9.926 5.179h.144q.863-2.877 3.525-4.028 2.66-1.223 7.12-1.223h8.847q2.158 0 3.525-.144a8.7 8.7 0 0 0 2.589-.719v8.056q-1.222.43-2.302.575-1.079.144-3.884.144h-9.206q-3.453 0-4.82 1.151-1.365 1.079-1.366 3.812v2.733H65v7.912zm21.58-10.789q0-2.373-1.222-3.524-1.224-1.223-4.1-1.223h-3.884q-2.733 0-3.956 1.007-1.223.935-1.223 3.021v3.596H36.23zm-21.578-48.43v-11.292l36.036-5.035v-.144l-36.036-5.035v-11.292H65v7.48H26.879v.144L65 255.47v6.617l-38.121 5.755v.143H65v6.905zm0-75.025v-10.717l50.349-8.2v7.912l-9.998 1.438h.144v8.991L65 200.728v7.336zm33.662-8.631-24.887 3.524v.144l24.887 3.452zM31.626 131.72H25.8q-4.675 0-4.675 3.956t4.675 3.956h28.123q4.605 0 4.604-3.956 0-3.956-4.604-3.956h-7.696v-7.48h7.12q5.395 0 8.632 2.517 3.165 2.518 3.668 7.265h2.158q0-2.445.791-3.668.791-1.295 2.59-1.295 2.661 0 3.524 1.798t.863 5.539q0 3.308-.935 5.106-.934 1.799-3.237 1.799h-.719v-5.323h.576q.72 0 1.079-.432.36-.503.36-1.15 0-1.008-.432-1.439-.36-.431-1.295-.431-1.006 0-1.439.647-.43.647-.431 2.014v.359h-3.453q-.503 4.892-3.668 7.481-3.165 2.517-8.631 2.517H26.303q-5.897 0-9.134-2.949-3.237-3.021-3.237-8.703t3.237-8.631q3.237-3.021 9.134-3.021h5.323zM14.651 83.183V72.466L65 64.266v7.913l-9.998 1.438h.144v8.991L65 84.046v7.337zm33.662-8.63-24.887 3.524v.144l24.887 3.452zM9.257 87.786q-3.093-1.366-4.532-2.95-1.51-1.581-1.51-3.596 0-1.294.36-2.23a12 12 0 0 1 1.007-2.085q.36-.648.647-1.223.288-.648.288-1.223 0-.863-.648-1.51-.647-.648-2.157-1.367l2.301-3.812q3.093 1.366 4.603 2.95 1.44 1.582 1.439 3.595 0 1.295-.36 2.302-.36.935-1.007 2.014-.36.648-.647 1.295a2.55 2.55 0 0 0-.288 1.15q0 .864.648 1.511.646.647 2.158 1.367zm56.462-68.864q0 5.826-3.308 8.919-3.31 3.093-9.35 3.093H26.59q-6.042 0-9.35-3.093-3.309-3.093-3.309-8.919t3.309-8.919 9.35-3.093h26.47q6.04 0 9.35 3.093 3.308 3.093 3.308 8.92m-7.192 0q0-4.1-4.963-4.1H26.088q-4.963 0-4.963 4.1t4.963 4.1h27.476q4.962 0 4.963-4.1"/></svg>